<?xml version="1.0" encoding="iso-8859-1"?>
<!-- Generator: Adobe Illustrator 19.1.0, SVG Export Plug-In . SVG Version: 6.00 Build 0)  -->
<svg version="1.1" id="Capa_1" xmlns="http://www.w3.org/2000/svg" xmlns:xlink="http://www.w3.org/1999/xlink" x="2px" y="0px"
	 viewBox="0 0 25.366 25.366" style="enable-background:new 0 0 25.366 25.366;" xml:space="preserve">
<g>
	<path d="M18.27,6.62V6.567c0-0.053,0-0.053,0-0.106c0-1.377-0.794-2.542-1.959-3.124C16.205,1.483,14.722,0,12.816,0
		C11.015,0,9.479,1.43,9.32,3.177c-1.271,0.53-2.224,1.748-2.224,3.23c0,0.053,0,0.053,0,0.106v0.053l5.031,18.429
		c0.053,0.212,0.265,0.371,0.53,0.371s0.424-0.159,0.53-0.371l1.536-5.666l0,0L18.27,6.62z M11.333,17.635l3.019-0.53l-0.477,1.748
		l-2.118,0.371L11.333,17.635z M10.591,15.04l4.501-0.794l-0.477,1.748l-3.601,0.635L10.591,15.04z M9.903,12.392l6.037-1.059
		l-0.477,1.748l-5.084,0.9L9.903,12.392z M9.162,9.797l7.52-1.324l-0.477,1.748l-6.62,1.165L9.162,9.797z M8.42,7.043h8.632
		l-0.106,0.318l-8.102,1.43L8.42,7.043z M17.211,5.984h-4.713c0.265-1.059,1.218-1.906,2.383-1.906
		C16.046,4.078,16.946,4.872,17.211,5.984z M12.921,1.112c1.165,0,2.118,0.847,2.383,1.906c-0.159,0-0.318-0.053-0.424-0.053
		c-0.794,0-1.483,0.265-2.065,0.688c-0.583-0.424-1.324-0.688-2.065-0.688c-0.053,0-0.106,0-0.159,0
		C10.75,1.906,11.756,1.112,12.921,1.112z M10.697,4.078c0.477,0,0.9,0.159,1.324,0.371c-0.318,0.424-0.53,0.953-0.635,1.536H8.314
		C8.579,4.872,9.532,4.078,10.697,4.078z M12.763,22.93l-0.741-2.648l1.536-0.265L12.763,22.93z"/>
</g>
<g>
</g>
<g>
</g>
<g>
</g>
<g>
</g>
<g>
</g>
<g>
</g>
<g>
</g>
<g>
</g>
<g>
</g>
<g>
</g>
<g>
</g>
<g>
</g>
<g>
</g>
<g>
</g>
<g>
</g>
</svg>
